<mxfile host="app.diagrams.net" agent="Mozilla/5.0 (Windows NT 10.0; Win64; x64) AppleWebKit/537.36 (KHTML, like Gecko) Chrome/139.0.0.0 Safari/537.36" version="28.2.3">
  <diagram name="ページ1" id="ZRhRV9EXVHTOo3UH0wNa">
    <mxGraphModel dx="758" dy="444" grid="1" gridSize="10" guides="1" tooltips="1" connect="1" arrows="1" fold="1" page="1" pageScale="1" pageWidth="827" pageHeight="1169" math="0" shadow="0">
      <root>
        <mxCell id="0" />
        <mxCell id="1" parent="0" />
        <mxCell id="SeimWC8j_VFdecK_xQh8-18" value="ユーザー" style="shape=umlActor;verticalLabelPosition=bottom;verticalAlign=top;html=1;outlineConnect=0;" vertex="1" parent="1">
          <mxGeometry x="70" y="240" width="30" height="60" as="geometry" />
        </mxCell>
        <mxCell id="SeimWC8j_VFdecK_xQh8-20" value="" style="endArrow=none;dashed=1;html=1;rounded=0;" edge="1" parent="1" source="SeimWC8j_VFdecK_xQh8-58" target="SeimWC8j_VFdecK_xQh8-18">
          <mxGeometry width="50" height="50" relative="1" as="geometry">
            <mxPoint x="85" y="680" as="sourcePoint" />
            <mxPoint x="120" y="400" as="targetPoint" />
          </mxGeometry>
        </mxCell>
        <mxCell id="SeimWC8j_VFdecK_xQh8-21" value="" style="shape=umlLifeline;perimeter=lifelinePerimeter;whiteSpace=wrap;html=1;container=1;dropTarget=0;collapsible=0;recursiveResize=0;outlineConnect=0;portConstraint=eastwest;newEdgeStyle={&quot;curved&quot;:0,&quot;rounded&quot;:0};participant=umlBoundary;fillColor=#d5e8d4;strokeColor=#82b366;" vertex="1" parent="1">
          <mxGeometry x="160" y="240" width="50" height="440" as="geometry" />
        </mxCell>
        <mxCell id="SeimWC8j_VFdecK_xQh8-37" value="" style="html=1;points=[[0,0,0,0,5],[0,1,0,0,-5],[1,0,0,0,5],[1,1,0,0,-5]];perimeter=orthogonalPerimeter;outlineConnect=0;targetShapes=umlLifeline;portConstraint=eastwest;newEdgeStyle={&quot;curved&quot;:0,&quot;rounded&quot;:0};" vertex="1" parent="SeimWC8j_VFdecK_xQh8-21">
          <mxGeometry x="20" y="120" width="10" height="220" as="geometry" />
        </mxCell>
        <mxCell id="SeimWC8j_VFdecK_xQh8-22" value="新規登録画面" style="text;html=1;align=center;verticalAlign=middle;whiteSpace=wrap;rounded=0;" vertex="1" parent="1">
          <mxGeometry x="160" y="290" width="60" height="30" as="geometry" />
        </mxCell>
        <mxCell id="SeimWC8j_VFdecK_xQh8-24" value="新規登録" style="text;html=1;align=center;verticalAlign=middle;whiteSpace=wrap;rounded=0;" vertex="1" parent="1">
          <mxGeometry x="255" y="290" width="75" height="30" as="geometry" />
        </mxCell>
        <mxCell id="SeimWC8j_VFdecK_xQh8-25" value="" style="shape=umlLifeline;perimeter=lifelinePerimeter;whiteSpace=wrap;html=1;container=1;dropTarget=0;collapsible=0;recursiveResize=0;outlineConnect=0;portConstraint=eastwest;newEdgeStyle={&quot;curved&quot;:0,&quot;rounded&quot;:0};participant=umlBoundary;fillColor=#d5e8d4;strokeColor=#82b366;" vertex="1" parent="1">
          <mxGeometry x="360" y="240" width="50" height="440" as="geometry" />
        </mxCell>
        <mxCell id="SeimWC8j_VFdecK_xQh8-60" value="" style="html=1;points=[[0,0,0,0,5],[0,1,0,0,-5],[1,0,0,0,5],[1,1,0,0,-5]];perimeter=orthogonalPerimeter;outlineConnect=0;targetShapes=umlLifeline;portConstraint=eastwest;newEdgeStyle={&quot;curved&quot;:0,&quot;rounded&quot;:0};" vertex="1" parent="SeimWC8j_VFdecK_xQh8-25">
          <mxGeometry x="20" y="230" width="10" height="50" as="geometry" />
        </mxCell>
        <mxCell id="SeimWC8j_VFdecK_xQh8-26" value="新規登録完了画面" style="text;html=1;align=center;verticalAlign=middle;whiteSpace=wrap;rounded=0;" vertex="1" parent="1">
          <mxGeometry x="360" y="290" width="60" height="30" as="geometry" />
        </mxCell>
        <mxCell id="SeimWC8j_VFdecK_xQh8-27" value="" style="shape=umlLifeline;perimeter=lifelinePerimeter;whiteSpace=wrap;html=1;container=1;dropTarget=0;collapsible=0;recursiveResize=0;outlineConnect=0;portConstraint=eastwest;newEdgeStyle={&quot;curved&quot;:0,&quot;rounded&quot;:0};participant=umlEntity;fillColor=#dae8fc;strokeColor=#6c8ebf;" vertex="1" parent="1">
          <mxGeometry x="580" y="235" width="40" height="440" as="geometry" />
        </mxCell>
        <mxCell id="SeimWC8j_VFdecK_xQh8-44" value="" style="html=1;points=[[0,0,0,0,5],[0,1,0,0,-5],[1,0,0,0,5],[1,1,0,0,-5]];perimeter=orthogonalPerimeter;outlineConnect=0;targetShapes=umlLifeline;portConstraint=eastwest;newEdgeStyle={&quot;curved&quot;:0,&quot;rounded&quot;:0};" vertex="1" parent="SeimWC8j_VFdecK_xQh8-27">
          <mxGeometry x="15" y="145" width="10" height="60" as="geometry" />
        </mxCell>
        <mxCell id="SeimWC8j_VFdecK_xQh8-28" value="訪問者" style="text;html=1;align=center;verticalAlign=middle;whiteSpace=wrap;rounded=0;" vertex="1" parent="1">
          <mxGeometry x="570" y="290" width="60" height="30" as="geometry" />
        </mxCell>
        <mxCell id="SeimWC8j_VFdecK_xQh8-29" value="" style="shape=umlLifeline;perimeter=lifelinePerimeter;whiteSpace=wrap;html=1;container=1;dropTarget=0;collapsible=0;recursiveResize=0;outlineConnect=0;portConstraint=eastwest;newEdgeStyle={&quot;curved&quot;:0,&quot;rounded&quot;:0};participant=umlControl;fillColor=#f8cecc;strokeColor=#b85450;" vertex="1" parent="1">
          <mxGeometry x="270" y="235" width="40" height="440" as="geometry" />
        </mxCell>
        <mxCell id="SeimWC8j_VFdecK_xQh8-39" value="" style="html=1;points=[[0,0,0,0,5],[0,1,0,0,-5],[1,0,0,0,5],[1,1,0,0,-5]];perimeter=orthogonalPerimeter;outlineConnect=0;targetShapes=umlLifeline;portConstraint=eastwest;newEdgeStyle={&quot;curved&quot;:0,&quot;rounded&quot;:0};" vertex="1" parent="SeimWC8j_VFdecK_xQh8-29">
          <mxGeometry x="15" y="130" width="10" height="220" as="geometry" />
        </mxCell>
        <mxCell id="SeimWC8j_VFdecK_xQh8-35" value="" style="endArrow=classic;html=1;rounded=0;" edge="1" parent="1" target="SeimWC8j_VFdecK_xQh8-21">
          <mxGeometry width="50" height="50" relative="1" as="geometry">
            <mxPoint x="90" y="360" as="sourcePoint" />
            <mxPoint x="290" y="420" as="targetPoint" />
          </mxGeometry>
        </mxCell>
        <mxCell id="SeimWC8j_VFdecK_xQh8-36" value="ユーザー情報入力" style="text;html=1;align=center;verticalAlign=middle;whiteSpace=wrap;rounded=0;" vertex="1" parent="1">
          <mxGeometry x="80" y="330" width="100" height="30" as="geometry" />
        </mxCell>
        <mxCell id="SeimWC8j_VFdecK_xQh8-38" value="" style="endArrow=classic;html=1;rounded=0;" edge="1" parent="1" target="SeimWC8j_VFdecK_xQh8-39">
          <mxGeometry width="50" height="50" relative="1" as="geometry">
            <mxPoint x="190" y="370" as="sourcePoint" />
            <mxPoint x="429.5" y="370" as="targetPoint" />
          </mxGeometry>
        </mxCell>
        <mxCell id="SeimWC8j_VFdecK_xQh8-40" value="起動" style="text;html=1;align=center;verticalAlign=middle;whiteSpace=wrap;rounded=0;" vertex="1" parent="1">
          <mxGeometry x="200" y="340" width="70" height="30" as="geometry" />
        </mxCell>
        <mxCell id="SeimWC8j_VFdecK_xQh8-53" value="" style="shape=umlLifeline;perimeter=lifelinePerimeter;whiteSpace=wrap;html=1;container=1;dropTarget=0;collapsible=0;recursiveResize=0;outlineConnect=0;portConstraint=eastwest;newEdgeStyle={&quot;curved&quot;:0,&quot;rounded&quot;:0};participant=umlBoundary;fillColor=#d5e8d4;strokeColor=#82b366;" vertex="1" parent="1">
          <mxGeometry x="470" y="240" width="50" height="430" as="geometry" />
        </mxCell>
        <mxCell id="SeimWC8j_VFdecK_xQh8-61" value="" style="html=1;points=[[0,0,0,0,5],[0,1,0,0,-5],[1,0,0,0,5],[1,1,0,0,-5]];perimeter=orthogonalPerimeter;outlineConnect=0;targetShapes=umlLifeline;portConstraint=eastwest;newEdgeStyle={&quot;curved&quot;:0,&quot;rounded&quot;:0};" vertex="1" parent="SeimWC8j_VFdecK_xQh8-53">
          <mxGeometry x="20" y="310" width="10" height="40" as="geometry" />
        </mxCell>
        <mxCell id="SeimWC8j_VFdecK_xQh8-54" value="エラーメッセージ付き新規登録画面" style="text;html=1;align=center;verticalAlign=middle;whiteSpace=wrap;rounded=0;" vertex="1" parent="1">
          <mxGeometry x="465" y="290" width="85" height="30" as="geometry" />
        </mxCell>
        <mxCell id="SeimWC8j_VFdecK_xQh8-55" value="" style="endArrow=classic;html=1;rounded=0;" edge="1" parent="1" source="SeimWC8j_VFdecK_xQh8-39">
          <mxGeometry width="50" height="50" relative="1" as="geometry">
            <mxPoint x="300" y="380" as="sourcePoint" />
            <mxPoint x="593.5" y="380" as="targetPoint" />
          </mxGeometry>
        </mxCell>
        <mxCell id="SeimWC8j_VFdecK_xQh8-56" value="新規登録" style="text;html=1;align=center;verticalAlign=middle;whiteSpace=wrap;rounded=0;" vertex="1" parent="1">
          <mxGeometry x="310" y="350" width="60" height="30" as="geometry" />
        </mxCell>
        <mxCell id="SeimWC8j_VFdecK_xQh8-57" value="" style="endArrow=block;dashed=1;endFill=0;endSize=12;html=1;rounded=0;entryX=1;entryY=1;entryDx=0;entryDy=-5;entryPerimeter=0;" edge="1" parent="1">
          <mxGeometry width="160" relative="1" as="geometry">
            <mxPoint x="599.5" y="440" as="sourcePoint" />
            <mxPoint x="295" y="440" as="targetPoint" />
          </mxGeometry>
        </mxCell>
        <mxCell id="SeimWC8j_VFdecK_xQh8-59" value="" style="endArrow=none;dashed=1;html=1;rounded=0;" edge="1" parent="1" target="SeimWC8j_VFdecK_xQh8-58">
          <mxGeometry width="50" height="50" relative="1" as="geometry">
            <mxPoint x="85" y="680" as="sourcePoint" />
            <mxPoint x="85" y="300" as="targetPoint" />
          </mxGeometry>
        </mxCell>
        <mxCell id="SeimWC8j_VFdecK_xQh8-58" value="" style="html=1;points=[[0,0,0,0,5],[0,1,0,0,-5],[1,0,0,0,5],[1,1,0,0,-5]];perimeter=orthogonalPerimeter;outlineConnect=0;targetShapes=umlLifeline;portConstraint=eastwest;newEdgeStyle={&quot;curved&quot;:0,&quot;rounded&quot;:0};" vertex="1" parent="1">
          <mxGeometry x="80" y="350" width="10" height="230" as="geometry" />
        </mxCell>
        <mxCell id="SeimWC8j_VFdecK_xQh8-62" value="" style="endArrow=classic;html=1;rounded=0;entryX=0;entryY=0;entryDx=0;entryDy=5;entryPerimeter=0;" edge="1" parent="1" source="SeimWC8j_VFdecK_xQh8-39" target="SeimWC8j_VFdecK_xQh8-61">
          <mxGeometry width="50" height="50" relative="1" as="geometry">
            <mxPoint x="290" y="550" as="sourcePoint" />
            <mxPoint x="480" y="553" as="targetPoint" />
          </mxGeometry>
        </mxCell>
        <mxCell id="SeimWC8j_VFdecK_xQh8-65" value="エラー発生時表示" style="text;html=1;align=center;verticalAlign=middle;whiteSpace=wrap;rounded=0;" vertex="1" parent="1">
          <mxGeometry x="300" y="520" width="110" height="30" as="geometry" />
        </mxCell>
        <mxCell id="SeimWC8j_VFdecK_xQh8-66" value="" style="endArrow=classic;html=1;rounded=0;" edge="1" parent="1">
          <mxGeometry width="50" height="50" relative="1" as="geometry">
            <mxPoint x="297.4004347826087" y="470" as="sourcePoint" />
            <mxPoint x="382.59" y="470" as="targetPoint" />
          </mxGeometry>
        </mxCell>
        <mxCell id="SeimWC8j_VFdecK_xQh8-67" value="表示" style="text;html=1;align=center;verticalAlign=middle;whiteSpace=wrap;rounded=0;" vertex="1" parent="1">
          <mxGeometry x="310" y="440" width="60" height="30" as="geometry" />
        </mxCell>
      </root>
    </mxGraphModel>
  </diagram>
</mxfile>
